<svg xmlns="http://www.w3.org/2000/svg" viewBox="0 0 400 340" fill="none" width="400" height="340">
  <!-- Building 1 — tall, back left -->
  <g opacity="0.55" stroke="#E8A838">
    <path d="M100,100 L160,70 L220,100 L220,260 L160,290 L100,260 Z" stroke-width="1"/>
    <path d="M160,70 L160,290" stroke-width="0.5"/>
    <path d="M100,100 L160,130 L220,100" stroke-width="0.5"/>
    <line x1="100" y1="130" x2="160" y2="160" stroke-width="0.3"/>
    <line x1="100" y1="152" x2="160" y2="182" stroke-width="0.3"/>
    <line x1="100" y1="174" x2="160" y2="204" stroke-width="0.3"/>
    <line x1="100" y1="196" x2="160" y2="226" stroke-width="0.3"/>
    <line x1="100" y1="218" x2="160" y2="248" stroke-width="0.3"/>
    <line x1="100" y1="240" x2="160" y2="270" stroke-width="0.3"/>
  </g>
  <!-- Building 2 — medium, mid right -->
  <g opacity="0.5" stroke="#E8A838">
    <path d="M180,150 L240,120 L300,150 L300,270 L240,300 L180,270 Z" stroke-width="1.2"/>
    <path d="M240,120 L240,300" stroke-width="0.5"/>
    <path d="M180,150 L240,180 L300,150" stroke-width="0.5"/>
    <line x1="180" y1="180" x2="240" y2="210" stroke-width="0.4"/>
    <line x1="180" y1="204" x2="240" y2="234" stroke-width="0.4"/>
    <line x1="180" y1="228" x2="240" y2="258" stroke-width="0.4"/>
    <line x1="180" y1="252" x2="240" y2="282" stroke-width="0.4"/>
    <line x1="240" y1="210" x2="300" y2="180" stroke-width="0.3"/>
    <line x1="240" y1="234" x2="300" y2="204" stroke-width="0.3"/>
    <line x1="240" y1="258" x2="300" y2="228" stroke-width="0.3"/>
    <line x1="240" y1="282" x2="300" y2="252" stroke-width="0.3"/>
  </g>
  <!-- Building 3 — short accent, front right -->
  <g opacity="0.9" stroke="#E8A838">
    <path d="M260,200 L310,175 L360,200 L360,280 L310,305 L260,280 Z" stroke-width="1.5"/>
    <path d="M310,175 L310,305" stroke-width="0.7"/>
    <path d="M260,200 L310,225 L360,200" stroke-width="0.7"/>
    <line x1="260" y1="225" x2="310" y2="250" stroke-width="0.5"/>
    <line x1="260" y1="245" x2="310" y2="270" stroke-width="0.5"/>
    <line x1="260" y1="265" x2="310" y2="290" stroke-width="0.5"/>
  </g>
  <!-- Small accent block — front left -->
  <g opacity="0.55" stroke="#E8A838">
    <path d="M70,220 L110,200 L150,220 L150,275 L110,295 L70,275 Z" stroke-width="0.8"/>
    <path d="M110,200 L110,295" stroke-width="0.4"/>
  </g>
</svg>
