<svg xmlns="http://www.w3.org/2000/svg" viewBox="0 0 1100 1820" fill="none" preserveAspectRatio="xMidYMid slice" width="1100" height="1820">

  <!-- Header bar -->
  <text x="64" y="74" font-family="JetBrains Mono, monospace" font-size="9" fill="#E8A838" fill-opacity="0.8">PORTFOLIO KEYS · ROX &amp; CO · 2026</text>
  <text x="1036" y="74" text-anchor="end" font-family="JetBrains Mono, monospace" font-size="9" fill="#E8A838" fill-opacity="0.6">KEY BOARD — 02 OF 03</text>
  <line x1="64" y1="86" x2="1036" y2="86" stroke="#E8A838" stroke-opacity="0.25" stroke-dasharray="2 3"/>

  <!-- Peg-hole grid: 10 columns × 12 rows = 120 slots -->
  <g fill="#E8A838" fill-opacity="0.32">
    <circle cx="120" cy="130" r="2"/><circle cx="220" cy="130" r="2"/><circle cx="320" cy="130" r="2"/><circle cx="420" cy="130" r="2"/><circle cx="520" cy="130" r="2"/><circle cx="620" cy="130" r="2"/><circle cx="720" cy="130" r="2"/><circle cx="820" cy="130" r="2"/><circle cx="920" cy="130" r="2"/><circle cx="1020" cy="130" r="2"/>
    <circle cx="120" cy="270" r="2"/><circle cx="220" cy="270" r="2"/><circle cx="320" cy="270" r="2"/><circle cx="420" cy="270" r="2"/><circle cx="520" cy="270" r="2"/><circle cx="620" cy="270" r="2"/><circle cx="720" cy="270" r="2"/><circle cx="820" cy="270" r="2"/><circle cx="920" cy="270" r="2"/><circle cx="1020" cy="270" r="2"/>
    <circle cx="120" cy="410" r="2"/><circle cx="220" cy="410" r="2"/><circle cx="320" cy="410" r="2"/><circle cx="420" cy="410" r="2"/><circle cx="520" cy="410" r="2"/><circle cx="620" cy="410" r="2"/><circle cx="720" cy="410" r="2"/><circle cx="820" cy="410" r="2"/><circle cx="920" cy="410" r="2"/><circle cx="1020" cy="410" r="2"/>
    <circle cx="120" cy="550" r="2"/><circle cx="220" cy="550" r="2"/><circle cx="320" cy="550" r="2"/><circle cx="420" cy="550" r="2"/><circle cx="520" cy="550" r="2"/><circle cx="620" cy="550" r="2"/><circle cx="720" cy="550" r="2"/><circle cx="820" cy="550" r="2"/><circle cx="920" cy="550" r="2"/><circle cx="1020" cy="550" r="2"/>
    <circle cx="120" cy="690" r="2"/><circle cx="220" cy="690" r="2"/><circle cx="320" cy="690" r="2"/><circle cx="420" cy="690" r="2"/><circle cx="520" cy="690" r="2"/><circle cx="620" cy="690" r="2"/><circle cx="720" cy="690" r="2"/><circle cx="820" cy="690" r="2"/><circle cx="920" cy="690" r="2"/><circle cx="1020" cy="690" r="2"/>
    <circle cx="120" cy="830" r="2"/><circle cx="220" cy="830" r="2"/><circle cx="320" cy="830" r="2"/><circle cx="420" cy="830" r="2"/><circle cx="520" cy="830" r="2"/><circle cx="620" cy="830" r="2"/><circle cx="720" cy="830" r="2"/><circle cx="820" cy="830" r="2"/><circle cx="920" cy="830" r="2"/><circle cx="1020" cy="830" r="2"/>
    <circle cx="120" cy="970" r="2"/><circle cx="220" cy="970" r="2"/><circle cx="320" cy="970" r="2"/><circle cx="420" cy="970" r="2"/><circle cx="520" cy="970" r="2"/><circle cx="620" cy="970" r="2"/><circle cx="720" cy="970" r="2"/><circle cx="820" cy="970" r="2"/><circle cx="920" cy="970" r="2"/><circle cx="1020" cy="970" r="2"/>
    <circle cx="120" cy="1110" r="2"/><circle cx="220" cy="1110" r="2"/><circle cx="320" cy="1110" r="2"/><circle cx="420" cy="1110" r="2"/><circle cx="520" cy="1110" r="2"/><circle cx="620" cy="1110" r="2"/><circle cx="720" cy="1110" r="2"/><circle cx="820" cy="1110" r="2"/><circle cx="920" cy="1110" r="2"/><circle cx="1020" cy="1110" r="2"/>
    <circle cx="120" cy="1250" r="2"/><circle cx="220" cy="1250" r="2"/><circle cx="320" cy="1250" r="2"/><circle cx="420" cy="1250" r="2"/><circle cx="520" cy="1250" r="2"/><circle cx="620" cy="1250" r="2"/><circle cx="720" cy="1250" r="2"/><circle cx="820" cy="1250" r="2"/><circle cx="920" cy="1250" r="2"/><circle cx="1020" cy="1250" r="2"/>
    <circle cx="120" cy="1390" r="2"/><circle cx="220" cy="1390" r="2"/><circle cx="320" cy="1390" r="2"/><circle cx="420" cy="1390" r="2"/><circle cx="520" cy="1390" r="2"/><circle cx="620" cy="1390" r="2"/><circle cx="720" cy="1390" r="2"/><circle cx="820" cy="1390" r="2"/><circle cx="920" cy="1390" r="2"/><circle cx="1020" cy="1390" r="2"/>
    <circle cx="120" cy="1530" r="2"/><circle cx="220" cy="1530" r="2"/><circle cx="320" cy="1530" r="2"/><circle cx="420" cy="1530" r="2"/><circle cx="520" cy="1530" r="2"/><circle cx="620" cy="1530" r="2"/><circle cx="720" cy="1530" r="2"/><circle cx="820" cy="1530" r="2"/><circle cx="920" cy="1530" r="2"/><circle cx="1020" cy="1530" r="2"/>
    <circle cx="120" cy="1670" r="2"/><circle cx="220" cy="1670" r="2"/><circle cx="320" cy="1670" r="2"/><circle cx="420" cy="1670" r="2"/><circle cx="520" cy="1670" r="2"/><circle cx="620" cy="1670" r="2"/><circle cx="720" cy="1670" r="2"/><circle cx="820" cy="1670" r="2"/><circle cx="920" cy="1670" r="2"/><circle cx="1020" cy="1670" r="2"/>
  </g>

  <!-- Horizontal rules between row pairs -->
  <g stroke="#E8A838" stroke-opacity="0.06" stroke-width="0.5" stroke-dasharray="1 5">
    <line x1="60" y1="340" x2="1040" y2="340"/>
    <line x1="60" y1="620" x2="1040" y2="620"/>
    <line x1="60" y1="900" x2="1040" y2="900"/>
    <line x1="60" y1="1180" x2="1040" y2="1180"/>
    <line x1="60" y1="1460" x2="1040" y2="1460"/>
  </g>

  <!-- Key: A-01 · 17 LOOP -->
  <g stroke="#E8A838" stroke-width="0.9" fill="none">
    <line x1="220" y1="130" x2="220" y2="142" stroke-width="0.6"/>
    <circle cx="220" cy="148" r="5"/>
    <circle cx="220" cy="148" r="1.6" fill="#E8A838" fill-opacity="0.5" stroke="none"/>
    <line x1="220" y1="153" x2="220" y2="170"/>
    <line x1="220" y1="161" x2="224" y2="161"/>
    <line x1="220" y1="166" x2="223" y2="166"/>
    <rect x="200" y="178" width="40" height="20" rx="2" stroke-width="0.8"/>
    <text x="220" y="189" text-anchor="middle" font-family="JetBrains Mono, monospace" font-size="6.5" fill="#E8A838" stroke="none">A-01</text>
    <text x="220" y="196" text-anchor="middle" font-family="JetBrains Mono, monospace" font-size="5" fill="#E8A838" fill-opacity="0.75" stroke="none">17 LOOP</text>
  </g>

  <!-- Key: B-03 · BO-KAAP -->
  <g stroke="#E8A838" stroke-width="0.9" fill="none">
    <line x1="820" y1="130" x2="820" y2="142" stroke-width="0.6"/>
    <circle cx="820" cy="148" r="5"/>
    <circle cx="820" cy="148" r="1.6" fill="#E8A838" fill-opacity="0.5" stroke="none"/>
    <line x1="820" y1="153" x2="820" y2="170"/>
    <line x1="820" y1="161" x2="824" y2="161"/>
    <line x1="820" y1="166" x2="823" y2="166"/>
    <rect x="800" y="178" width="40" height="20" rx="2" stroke-width="0.8"/>
    <text x="820" y="189" text-anchor="middle" font-family="JetBrains Mono, monospace" font-size="6.5" fill="#E8A838" stroke="none">B-03</text>
    <text x="820" y="196" text-anchor="middle" font-family="JetBrains Mono, monospace" font-size="5" fill="#E8A838" fill-opacity="0.75" stroke="none">BO-KAAP</text>
  </g>

  <!-- Key: C-05 · PHILIPPI -->
  <g stroke="#E8A838" stroke-width="0.9" fill="none">
    <line x1="320" y1="410" x2="320" y2="422" stroke-width="0.6"/>
    <circle cx="320" cy="428" r="5"/>
    <circle cx="320" cy="428" r="1.6" fill="#E8A838" fill-opacity="0.5" stroke="none"/>
    <line x1="320" y1="433" x2="320" y2="450"/>
    <line x1="320" y1="441" x2="324" y2="441"/>
    <line x1="320" y1="446" x2="323" y2="446"/>
    <rect x="300" y="458" width="40" height="20" rx="2" stroke-width="0.8"/>
    <text x="320" y="469" text-anchor="middle" font-family="JetBrains Mono, monospace" font-size="6.5" fill="#E8A838" stroke="none">C-05</text>
    <text x="320" y="476" text-anchor="middle" font-family="JetBrains Mono, monospace" font-size="5" fill="#E8A838" fill-opacity="0.75" stroke="none">PHILIPPI</text>
  </g>

  <!-- Key: D-08 · CONTAINER WK -->
  <g stroke="#E8A838" stroke-width="0.9" fill="none">
    <line x1="920" y1="410" x2="920" y2="422" stroke-width="0.6"/>
    <circle cx="920" cy="428" r="5"/>
    <circle cx="920" cy="428" r="1.6" fill="#E8A838" fill-opacity="0.5" stroke="none"/>
    <line x1="920" y1="433" x2="920" y2="450"/>
    <line x1="920" y1="441" x2="924" y2="441"/>
    <line x1="920" y1="446" x2="923" y2="446"/>
    <rect x="900" y="458" width="40" height="20" rx="2" stroke-width="0.8"/>
    <text x="920" y="469" text-anchor="middle" font-family="JetBrains Mono, monospace" font-size="6.5" fill="#E8A838" stroke="none">D-08</text>
    <text x="920" y="476" text-anchor="middle" font-family="JetBrains Mono, monospace" font-size="5" fill="#E8A838" fill-opacity="0.75" stroke="none">CONTAINER WK</text>
  </g>

  <!-- Key: E-02 · CLAREMONT -->
  <g stroke="#E8A838" stroke-width="0.9" fill="none">
    <line x1="120" y1="690" x2="120" y2="702" stroke-width="0.6"/>
    <circle cx="120" cy="708" r="5"/>
    <circle cx="120" cy="708" r="1.6" fill="#E8A838" fill-opacity="0.5" stroke="none"/>
    <line x1="120" y1="713" x2="120" y2="730"/>
    <line x1="120" y1="721" x2="124" y2="721"/>
    <line x1="120" y1="726" x2="123" y2="726"/>
    <rect x="100" y="738" width="40" height="20" rx="2" stroke-width="0.8"/>
    <text x="120" y="749" text-anchor="middle" font-family="JetBrains Mono, monospace" font-size="6.5" fill="#E8A838" stroke="none">E-02</text>
    <text x="120" y="756" text-anchor="middle" font-family="JetBrains Mono, monospace" font-size="5" fill="#E8A838" fill-opacity="0.75" stroke="none">CLAREMONT</text>
  </g>

  <!-- Key: F-12 · SANDTON (highlighted) -->
  <g stroke="#E8A838" stroke-width="0.9" fill="none">
    <line x1="720" y1="690" x2="720" y2="702" stroke-width="0.6"/>
    <circle cx="720" cy="708" r="5"/>
    <circle cx="720" cy="708" r="1.6" fill="#E8A838" fill-opacity="0.5" stroke="none"/>
    <line x1="720" y1="713" x2="720" y2="728"/>
    <line x1="720" y1="719" x2="724" y2="719"/>
    <line x1="720" y1="724" x2="723" y2="724"/>
    <rect x="700" y="736" width="40" height="20" rx="2" stroke-width="0.8" fill="#E8A838" fill-opacity="0.12"/>
    <text x="720" y="747" text-anchor="middle" font-family="JetBrains Mono, monospace" font-size="6.5" fill="#E8A838" stroke="none">F-12</text>
    <text x="720" y="754" text-anchor="middle" font-family="JetBrains Mono, monospace" font-size="5" fill="#E8A838" fill-opacity="0.75" stroke="none">SANDTON</text>
  </g>

  <!-- Key: G-04 · WOODSTOCK -->
  <g stroke="#E8A838" stroke-width="0.9" fill="none">
    <line x1="420" y1="970" x2="420" y2="982" stroke-width="0.6"/>
    <circle cx="420" cy="988" r="5"/>
    <circle cx="420" cy="988" r="1.6" fill="#E8A838" fill-opacity="0.5" stroke="none"/>
    <line x1="420" y1="993" x2="420" y2="1010"/>
    <line x1="420" y1="1001" x2="424" y2="1001"/>
    <line x1="420" y1="1006" x2="423" y2="1006"/>
    <rect x="400" y="1018" width="40" height="20" rx="2" stroke-width="0.8"/>
    <text x="420" y="1029" text-anchor="middle" font-family="JetBrains Mono, monospace" font-size="6.5" fill="#E8A838" stroke="none">G-04</text>
    <text x="420" y="1036" text-anchor="middle" font-family="JetBrains Mono, monospace" font-size="5" fill="#E8A838" fill-opacity="0.75" stroke="none">WOODSTOCK</text>
  </g>

  <!-- Key: H-09 · GREENPOINT -->
  <g stroke="#E8A838" stroke-width="0.9" fill="none">
    <line x1="1020" y1="970" x2="1020" y2="982" stroke-width="0.6"/>
    <circle cx="1020" cy="988" r="5"/>
    <circle cx="1020" cy="988" r="1.6" fill="#E8A838" fill-opacity="0.5" stroke="none"/>
    <line x1="1020" y1="993" x2="1020" y2="1010"/>
    <line x1="1020" y1="1001" x2="1024" y2="1001"/>
    <line x1="1020" y1="1006" x2="1023" y2="1006"/>
    <rect x="1000" y="1018" width="40" height="20" rx="2" stroke-width="0.8"/>
    <text x="1020" y="1029" text-anchor="middle" font-family="JetBrains Mono, monospace" font-size="6.5" fill="#E8A838" stroke="none">H-09</text>
    <text x="1020" y="1036" text-anchor="middle" font-family="JetBrains Mono, monospace" font-size="5" fill="#E8A838" fill-opacity="0.75" stroke="none">GREENPOINT</text>
  </g>

  <!-- Key: J-07 · ROSEBANK -->
  <g stroke="#E8A838" stroke-width="0.9" fill="none">
    <line x1="220" y1="1250" x2="220" y2="1262" stroke-width="0.6"/>
    <circle cx="220" cy="1268" r="5"/>
    <circle cx="220" cy="1268" r="1.6" fill="#E8A838" fill-opacity="0.5" stroke="none"/>
    <line x1="220" y1="1273" x2="220" y2="1290"/>
    <line x1="220" y1="1281" x2="224" y2="1281"/>
    <line x1="220" y1="1286" x2="223" y2="1286"/>
    <rect x="200" y="1298" width="40" height="20" rx="2" stroke-width="0.8"/>
    <text x="220" y="1309" text-anchor="middle" font-family="JetBrains Mono, monospace" font-size="6.5" fill="#E8A838" stroke="none">J-07</text>
    <text x="220" y="1316" text-anchor="middle" font-family="JetBrains Mono, monospace" font-size="5" fill="#E8A838" fill-opacity="0.75" stroke="none">ROSEBANK</text>
  </g>

  <!-- Key: K-11 · DBN POINT -->
  <g stroke="#E8A838" stroke-width="0.9" fill="none">
    <line x1="820" y1="1250" x2="820" y2="1262" stroke-width="0.6"/>
    <circle cx="820" cy="1268" r="5"/>
    <circle cx="820" cy="1268" r="1.6" fill="#E8A838" fill-opacity="0.5" stroke="none"/>
    <line x1="820" y1="1273" x2="820" y2="1290"/>
    <line x1="820" y1="1281" x2="824" y2="1281"/>
    <line x1="820" y1="1286" x2="823" y2="1286"/>
    <rect x="800" y="1298" width="40" height="20" rx="2" stroke-width="0.8"/>
    <text x="820" y="1309" text-anchor="middle" font-family="JetBrains Mono, monospace" font-size="6.5" fill="#E8A838" stroke="none">K-11</text>
    <text x="820" y="1316" text-anchor="middle" font-family="JetBrains Mono, monospace" font-size="5" fill="#E8A838" fill-opacity="0.75" stroke="none">DBN POINT</text>
  </g>

  <!-- Key: L-06 · UMHLANGA -->
  <g stroke="#E8A838" stroke-width="0.9" fill="none">
    <line x1="520" y1="1530" x2="520" y2="1542" stroke-width="0.6"/>
    <circle cx="520" cy="1548" r="5"/>
    <circle cx="520" cy="1548" r="1.6" fill="#E8A838" fill-opacity="0.5" stroke="none"/>
    <line x1="520" y1="1553" x2="520" y2="1570"/>
    <line x1="520" y1="1561" x2="524" y2="1561"/>
    <line x1="520" y1="1566" x2="523" y2="1566"/>
    <rect x="500" y="1578" width="40" height="20" rx="2" stroke-width="0.8"/>
    <text x="520" y="1589" text-anchor="middle" font-family="JetBrains Mono, monospace" font-size="6.5" fill="#E8A838" stroke="none">L-06</text>
    <text x="520" y="1596" text-anchor="middle" font-family="JetBrains Mono, monospace" font-size="5" fill="#E8A838" fill-opacity="0.75" stroke="none">UMHLANGA</text>
  </g>

  <!-- Key: M-14 · OBSERVATORY -->
  <g stroke="#E8A838" stroke-width="0.9" fill="none">
    <line x1="920" y1="1530" x2="920" y2="1542" stroke-width="0.6"/>
    <circle cx="920" cy="1548" r="5"/>
    <circle cx="920" cy="1548" r="1.6" fill="#E8A838" fill-opacity="0.5" stroke="none"/>
    <line x1="920" y1="1553" x2="920" y2="1570"/>
    <line x1="920" y1="1561" x2="924" y2="1561"/>
    <line x1="920" y1="1566" x2="923" y2="1566"/>
    <rect x="900" y="1578" width="40" height="20" rx="2" stroke-width="0.8"/>
    <text x="920" y="1589" text-anchor="middle" font-family="JetBrains Mono, monospace" font-size="6.5" fill="#E8A838" stroke="none">M-14</text>
    <text x="920" y="1596" text-anchor="middle" font-family="JetBrains Mono, monospace" font-size="5" fill="#E8A838" fill-opacity="0.75" stroke="none">OBSERVATORY</text>
  </g>

</svg>
