<svg xmlns="http://www.w3.org/2000/svg" viewBox="0 0 600 700" fill="none" preserveAspectRatio="xMidYMid meet" width="600" height="700">

  <!-- Traced connection lines — base stroke + amber dashed overlay -->

  <!-- LEASE RENEWAL → LANDLORD STATEMENT -->
  <path d="M 165 75 L 245 75" stroke="#1C2840" stroke-width="1.2" stroke-linecap="round" opacity="0.55"/>
  <path d="M 165 75 L 245 75" stroke="#E8A838" stroke-width="0.8" stroke-linecap="round" stroke-dasharray="2 6" opacity="0.6"/>

  <!-- LANDLORD STATEMENT → INCOMING -->
  <path d="M 405 75 L 470 75" stroke="#1C2840" stroke-width="1.2" stroke-linecap="round" opacity="0.55"/>
  <path d="M 405 75 L 470 75" stroke="#E8A838" stroke-width="0.8" stroke-linecap="round" stroke-dasharray="2 6" opacity="0.6"/>

  <!-- LEASE RENEWAL → MAINTENANCE -->
  <path d="M 100 110 L 100 200 L 130 200" stroke="#1C2840" stroke-width="1.2" stroke-linecap="round" stroke-linejoin="round" opacity="0.55"/>
  <path d="M 100 110 L 100 200 L 130 200" stroke="#E8A838" stroke-width="0.8" stroke-linecap="round" stroke-dasharray="2 6" opacity="0.6"/>

  <!-- MAINTENANCE → DEPOSIT -->
  <path d="M 250 230 L 290 230 L 290 280 L 320 280" stroke="#1C2840" stroke-width="1.2" stroke-linecap="round" stroke-linejoin="round" opacity="0.55"/>
  <path d="M 250 230 L 290 230 L 290 280 L 320 280" stroke="#E8A838" stroke-width="0.8" stroke-linecap="round" stroke-dasharray="2 6" opacity="0.6"/>

  <!-- DEPOSIT → Sectional title block -->
  <path d="M 380 320 L 380 360 L 350 360 L 350 410" stroke="#1C2840" stroke-width="1.2" stroke-linecap="round" stroke-linejoin="round" opacity="0.55"/>
  <path d="M 380 320 L 380 360 L 350 360 L 350 410" stroke="#E8A838" stroke-width="0.8" stroke-linecap="round" stroke-dasharray="2 6" opacity="0.6"/>

  <!-- Sectional title → IN-GOING -->
  <path d="M 350 530 L 350 595 L 290 595" stroke="#1C2840" stroke-width="1.2" stroke-linecap="round" stroke-linejoin="round" opacity="0.55"/>
  <path d="M 350 530 L 350 595 L 290 595" stroke="#E8A838" stroke-width="0.8" stroke-linecap="round" stroke-dasharray="2 6" opacity="0.6"/>

  <!-- APARTMENT BLOCK → IN-GOING -->
  <path d="M 175 580 L 215 580" stroke="#1C2840" stroke-width="1.2" stroke-linecap="round" opacity="0.55"/>
  <path d="M 175 580 L 215 580" stroke="#E8A838" stroke-width="0.8" stroke-linecap="round" stroke-dasharray="2 6" opacity="0.6"/>

  <!-- APARTMENT BLOCK → MAINTENANCE -->
  <path d="M 100 470 L 100 280" stroke="#1C2840" stroke-width="1.2" stroke-linecap="round" opacity="0.55"/>
  <path d="M 100 470 L 100 280" stroke="#E8A838" stroke-width="0.8" stroke-linecap="round" stroke-dasharray="2 6" opacity="0.6"/>

  <!-- Callout 1 · LEASE RENEWAL -->
  <g stroke="#4B5563" stroke-width="0.9" fill="none">
    <rect x="40" y="45" width="125" height="60" rx="3" fill="#FFFFFF" fill-opacity="0.04"/>
    <rect x="45" y="50" width="115" height="50" rx="2" stroke-width="0.5" stroke-dasharray="1.5 2" opacity="0.55"/>
    <text x="48" y="62" font-family="JetBrains Mono, monospace" font-size="6" fill="#4B5563" stroke="none" font-weight="600" opacity="0.8" letter-spacing="0.5">LEASE RENEWAL</text>
    <line x1="48" y1="66" x2="160" y2="66" stroke-width="0.5" opacity="0.4"/>
    <rect x="48" y="71" width="38" height="7" rx="1" stroke-width="0.5" fill="#4B5563" fill-opacity="0.1" stroke="none"/>
    <text x="50" y="77" font-family="JetBrains Mono, monospace" font-size="4.5" fill="#4B5563" stroke="none" font-weight="600">14 DAYS</text>
    <g font-family="JetBrains Mono, monospace" font-size="5.5" fill="#4B5563" stroke="none">
      <text x="92" y="77">L-2403 · CPA s14</text>
      <text x="48" y="89" opacity="0.7">N. DLAMINI · UNIT A</text>
      <text x="48" y="98" opacity="0.55">SENT · 14·03 · NOTICED</text>
    </g>
    <circle cx="165" cy="75" r="2.5" fill="#E8A838" stroke="none" opacity="0.9"/>
  </g>

  <!-- Callout 2 · LANDLORD STATEMENT -->
  <g stroke="#4B5563" stroke-width="0.9" fill="none">
    <rect x="245" y="45" width="160" height="60" rx="3" fill="#FFFFFF" fill-opacity="0.04"/>
    <rect x="250" y="50" width="150" height="50" rx="2" stroke-width="0.5" stroke-dasharray="1.5 2" opacity="0.55"/>
    <text x="253" y="62" font-family="JetBrains Mono, monospace" font-size="6" fill="#4B5563" stroke="none" font-weight="600" opacity="0.8" letter-spacing="0.5">LANDLORD STATEMENT</text>
    <line x1="253" y1="66" x2="400" y2="66" stroke-width="0.5" opacity="0.4"/>
    <g font-family="JetBrains Mono, monospace" font-size="5.5" fill="#4B5563" stroke="none">
      <text x="253" y="77">02 MAR · RENT</text>
      <text x="400" y="77" text-anchor="end" opacity="0.75">13,500.00</text>
      <text x="253" y="87">02 MAR · FEE</text>
      <text x="400" y="87" text-anchor="end" opacity="0.75">−1,350.00</text>
      <text x="253" y="98" opacity="0.85" font-weight="600">PAYABLE</text>
      <text x="400" y="98" text-anchor="end" font-weight="600">11,812.50</text>
    </g>
    <circle cx="245" cy="75" r="2.5" fill="#E8A838" stroke="none" opacity="0.9"/>
    <circle cx="405" cy="75" r="2.5" fill="#E8A838" stroke="none" opacity="0.9"/>
  </g>

  <!-- Callout 3 · INCOMING -->
  <g stroke="#4B5563" stroke-width="0.9" fill="none">
    <rect x="470" y="45" width="115" height="60" rx="3" fill="#FFFFFF" fill-opacity="0.04"/>
    <rect x="475" y="50" width="105" height="50" rx="2" stroke-width="0.5" stroke-dasharray="1.5 2" opacity="0.55"/>
    <text x="478" y="62" font-family="JetBrains Mono, monospace" font-size="6" fill="#4B5563" stroke="none" font-weight="600" opacity="0.8" letter-spacing="0.5">INCOMING</text>
    <line x1="478" y1="66" x2="580" y2="66" stroke-width="0.5" opacity="0.4"/>
    <circle cx="572" cy="62" r="2.5" fill="#E8A838" stroke="none" opacity="0.9"/>
    <g font-family="JetBrains Mono, monospace" font-size="5.5" fill="#4B5563" stroke="none">
      <text x="478" y="77" font-weight="600">M. NDLOVU</text>
      <text x="478" y="87" opacity="0.75">RE: GEYSER · QUOTE</text>
      <text x="478" y="98" opacity="0.55">14·03 · 09:42</text>
    </g>
    <circle cx="470" cy="75" r="2.5" fill="#E8A838" stroke="none" opacity="0.9"/>
  </g>

  <!-- Callout 4 · MAINTENANCE -->
  <g stroke="#4B5563" stroke-width="0.9" fill="none">
    <rect x="130" y="200" width="120" height="60" rx="3" fill="#FFFFFF" fill-opacity="0.04"/>
    <rect x="135" y="205" width="110" height="50" rx="2" stroke-width="0.5" stroke-dasharray="1.5 2" opacity="0.55"/>
    <text x="138" y="217" font-family="JetBrains Mono, monospace" font-size="6" fill="#4B5563" stroke="none" font-weight="600" opacity="0.8" letter-spacing="0.5">MAINTENANCE</text>
    <line x1="138" y1="221" x2="245" y2="221" stroke-width="0.5" opacity="0.4"/>
    <rect x="138" y="226" width="32" height="7" rx="1" stroke-width="0.5" fill="#4B5563" fill-opacity="0.1" stroke="none"/>
    <text x="140" y="232" font-family="JetBrains Mono, monospace" font-size="4.5" fill="#4B5563" stroke="none" font-weight="600">GEYSER</text>
    <g font-family="JetBrains Mono, monospace" font-size="5.5" fill="#4B5563" stroke="none">
      <text x="174" y="232" opacity="0.75">MX-8821</text>
      <text x="138" y="244" opacity="0.7">ASSIGNED · M. NDLOVU</text>
      <text x="138" y="253" opacity="0.55">QUOTED · R 287.50</text>
    </g>
    <circle cx="130" cy="200" r="2.5" fill="#E8A838" stroke="none" opacity="0.9"/>
    <circle cx="250" cy="230" r="2.5" fill="#E8A838" stroke="none" opacity="0.9"/>
  </g>

  <!-- Callout 5 · DEPOSIT -->
  <g stroke="#4B5563" stroke-width="0.9" fill="none">
    <rect x="320" y="250" width="125" height="65" rx="3" fill="#FFFFFF" fill-opacity="0.04"/>
    <rect x="325" y="255" width="115" height="55" rx="2" stroke-width="0.5" stroke-dasharray="1.5 2" opacity="0.55"/>
    <text x="328" y="267" font-family="JetBrains Mono, monospace" font-size="6" fill="#4B5563" stroke="none" font-weight="600" opacity="0.8" letter-spacing="0.5">DEPOSIT · TRUST</text>
    <line x1="328" y1="271" x2="440" y2="271" stroke-width="0.5" opacity="0.4"/>
    <g font-family="JetBrains Mono, monospace" font-size="5.5" fill="#4B5563" stroke="none">
      <text x="328" y="282">HELD</text>
      <text x="440" y="282" text-anchor="end" font-weight="600">R 12,000.00</text>
      <text x="328" y="293" opacity="0.7">INTEREST · YTD</text>
      <text x="440" y="293" text-anchor="end" opacity="0.75">R 287.40</text>
      <text x="328" y="304" opacity="0.55">TRUST · ABSA 407 889</text>
    </g>
    <circle cx="320" cy="280" r="2.5" fill="#E8A838" stroke="none" opacity="0.9"/>
    <circle cx="380" cy="320" r="2.5" fill="#E8A838" stroke="none" opacity="0.9"/>
  </g>

  <!-- Building 1 · Sectional title block -->
  <g stroke="#4B5563" stroke-width="1.2" fill="none">
    <rect x="320" y="410" width="60" height="120" rx="2"/>
    <path d="M 380 410 L 395 395 L 395 515 L 380 530 Z"/>
    <path d="M 320 410 L 335 395 L 395 395"/>
    <g stroke-width="0.5" opacity="0.6">
      <line x1="320" y1="435" x2="380" y2="435"/>
      <line x1="320" y1="460" x2="380" y2="460"/>
      <line x1="320" y1="485" x2="380" y2="485"/>
      <line x1="320" y1="510" x2="380" y2="510"/>
    </g>
    <rect x="328" y="465" width="14" height="14" stroke-width="0.7" fill="#4B5563" fill-opacity="0.06"/>
    <text x="320" y="548" font-family="JetBrains Mono, monospace" font-size="8" fill="#4B5563" stroke="none" opacity="0.7">PROP-C · S 12</text>
    <circle cx="350" cy="410" r="2.5" fill="#E8A838" stroke="none" opacity="0.9"/>
  </g>

  <!-- Building 2 · APARTMENT BLOCK -->
  <g stroke="#4B5563" stroke-width="1.2" fill="none">
    <rect x="50" y="470" width="125" height="155" rx="2"/>
    <path d="M 175 470 L 195 455 L 195 610 L 175 625 Z"/>
    <path d="M 50 470 L 70 455 L 195 455"/>
    <g stroke-width="0.8">
      <rect x="64"  y="485" width="14" height="14"/>
      <rect x="89"  y="485" width="14" height="14"/>
      <rect x="114" y="485" width="14" height="14"/>
      <rect x="140" y="485" width="14" height="14"/>
      <rect x="64"  y="510" width="14" height="14"/>
      <rect x="89"  y="510" width="14" height="14"/>
      <rect x="114" y="510" width="14" height="14"/>
      <rect x="140" y="510" width="14" height="14"/>
      <rect x="64"  y="535" width="14" height="14"/>
      <rect x="89"  y="535" width="14" height="14"/>
      <rect x="114" y="535" width="14" height="14"/>
      <rect x="140" y="535" width="14" height="14"/>
      <rect x="64"  y="560" width="14" height="14"/>
      <rect x="89"  y="560" width="14" height="14"/>
      <rect x="114" y="560" width="14" height="14"/>
      <rect x="140" y="560" width="14" height="14"/>
      <rect x="64"  y="585" width="14" height="14"/>
      <rect x="89"  y="585" width="14" height="14"/>
      <rect x="114" y="585" width="14" height="14"/>
      <rect x="140" y="585" width="14" height="14"/>
    </g>
    <rect x="104" y="605" width="16" height="20" stroke-width="1"/>
    <text x="50" y="645" font-family="JetBrains Mono, monospace" font-size="8" fill="#4B5563" stroke="none" opacity="0.7">PROP-A · 12 UNITS</text>
    <circle cx="100" cy="470" r="2.5" fill="#E8A838" stroke="none" opacity="0.9"/>
    <circle cx="175" cy="580" r="2.5" fill="#E8A838" stroke="none" opacity="0.9"/>
  </g>

  <!-- Callout 6 · IN-GOING -->
  <g stroke="#4B5563" stroke-width="0.9" fill="none">
    <rect x="215" y="565" width="120" height="60" rx="3" fill="#FFFFFF" fill-opacity="0.04"/>
    <rect x="220" y="570" width="110" height="50" rx="2" stroke-width="0.5" stroke-dasharray="1.5 2" opacity="0.55"/>
    <text x="223" y="582" font-family="JetBrains Mono, monospace" font-size="6" fill="#4B5563" stroke="none" font-weight="600" opacity="0.8" letter-spacing="0.5">IN-GOING</text>
    <line x1="223" y1="586" x2="330" y2="586" stroke-width="0.5" opacity="0.4"/>
    <g font-family="JetBrains Mono, monospace" font-size="5.5" fill="#4B5563" stroke="none">
      <text x="223" y="597" font-weight="600">N. DLAMINI</text>
      <text x="223" y="607" opacity="0.75">28 MAR · 14:00</text>
      <text x="223" y="618" opacity="0.55">PHOTOS · 0/12 · GPS</text>
    </g>
    <circle cx="215" cy="580" r="2.5" fill="#E8A838" stroke="none" opacity="0.9"/>
    <circle cx="290" cy="595" r="2.5" fill="#E8A838" stroke="none" opacity="0.9"/>
  </g>

  <!-- Key-on-peg motif -->
  <g stroke="#4B5563" stroke-width="1" fill="none" opacity="0.7">
    <circle cx="555" cy="135" r="2" fill="#4B5563" stroke="none" opacity="0.5"/>
    <line x1="555" y1="137" x2="555" y2="147" stroke-width="0.5"/>
    <circle cx="555" cy="153" r="5"/>
    <circle cx="555" cy="153" r="1.5" fill="#4B5563" stroke="none" opacity="0.5"/>
    <line x1="555" y1="158" x2="555" y2="173"/>
    <line x1="555" y1="166" x2="559" y2="166"/>
    <line x1="555" y1="171" x2="558" y2="171"/>
    <rect x="540" y="180" width="30" height="15" rx="1.5" stroke-width="0.7"/>
    <text x="555" y="190" text-anchor="middle" font-family="JetBrains Mono, monospace" font-size="5" fill="#4B5563" stroke="none">KEY · 0417</text>
  </g>

  <!-- Notification glow halos -->
  <circle cx="165" cy="75" r="6" fill="#E8A838" opacity="0.18"/>
  <circle cx="572" cy="62" r="5" fill="#E8A838" opacity="0.22"/>
  <circle cx="100" cy="470" r="6" fill="#E8A838" opacity="0.18"/>
</svg>
