<svg xmlns="http://www.w3.org/2000/svg" viewBox="0 0 400 400" fill="none" stroke="#E8A838" stroke-width="1.2" width="400" height="400">
  <rect x="30" y="30" width="340" height="340" rx="3" stroke-width="1.5"/>
  <rect x="48" y="48" width="304" height="304" rx="2" opacity="0.45"/>
  <g fill="#E8A838">
    <circle cx="44" cy="44" r="2.2"/>
    <circle cx="356" cy="44" r="2.2"/>
    <circle cx="44" cy="356" r="2.2"/>
    <circle cx="356" cy="356" r="2.2"/>
  </g>
  <g fill="#E8A838" fill-opacity="0.55">
    <circle cx="120" cy="70" r="1.5"/><circle cx="200" cy="68" r="1.5"/><circle cx="280" cy="70" r="1.5"/>
    <circle cx="120" cy="330" r="1.5"/><circle cx="200" cy="332" r="1.5"/><circle cx="280" cy="330" r="1.5"/>
    <circle cx="70" cy="120" r="1.5"/><circle cx="70" cy="280" r="1.5"/>
    <circle cx="330" cy="120" r="1.5"/><circle cx="330" cy="200" r="1.5"/><circle cx="330" cy="280" r="1.5"/>
  </g>
  <rect x="158" y="74" width="84" height="24" rx="1" stroke-width="0.8" fill="#E8A838" fill-opacity="0.04"/>
  <text x="200" y="86" text-anchor="middle" font-family="JetBrains Mono, monospace" font-size="7.5" fill="#E8A838" stroke="none" letter-spacing="0.08em">PLEKS &amp; CO</text>
  <text x="200" y="93" text-anchor="middle" font-family="JetBrains Mono, monospace" font-size="4.8" fill="#E8A838" opacity="0.72" stroke="none">EST. MMXXVI · CAPE TOWN</text>
  <circle cx="200" cy="215" r="118" stroke-width="1.5"/>
  <circle cx="200" cy="215" r="110" opacity="0.55"/>
  <circle cx="200" cy="215" r="98" stroke-dasharray="2 3" opacity="0.4"/>
  <g stroke-width="1.4" stroke-linecap="round">
    <line x1="200" y1="97" x2="200" y2="84"/>
    <line x1="284" y1="132" x2="293" y2="123"/>
    <line x1="318" y1="215" x2="331" y2="215"/>
    <line x1="284" y1="298" x2="293" y2="307"/>
    <line x1="200" y1="333" x2="200" y2="346"/>
    <line x1="116" y1="298" x2="107" y2="307"/>
    <line x1="82" y1="215" x2="69" y2="215"/>
    <line x1="116" y1="132" x2="107" y2="123"/>
  </g>
  <g stroke-width="0.9">
    <rect x="62" y="178" width="16" height="74" rx="1" fill="#E8A838" fill-opacity="0.05"/>
    <line x1="70" y1="178" x2="70" y2="252" stroke-width="0.4" opacity="0.4"/>
    <circle cx="70" cy="188" r="1.4" fill="#E8A838"/>
    <circle cx="70" cy="204" r="1.4" fill="#E8A838"/>
    <circle cx="70" cy="220" r="1.4" fill="#E8A838"/>
    <circle cx="70" cy="236" r="1.4" fill="#E8A838"/>
  </g>
  <g transform="translate(200, 182)">
    <circle r="24" stroke-width="1"/>
    <circle r="18" opacity="0.5"/>
    <circle r="3.5" fill="#E8A838"/>
    <line x1="0" y1="-24" x2="0" y2="-31" stroke-width="1.4"/>
    <g stroke-width="0.5" opacity="0.7">
      <line x1="0" y1="-21" x2="0" y2="-19"/>
      <line x1="14.8" y1="-14.8" x2="13.4" y2="-13.4"/>
      <line x1="21" y1="0" x2="19" y2="0"/>
      <line x1="14.8" y1="14.8" x2="13.4" y2="13.4"/>
      <line x1="0" y1="21" x2="0" y2="19"/>
      <line x1="-14.8" y1="14.8" x2="-13.4" y2="13.4"/>
      <line x1="-21" y1="0" x2="-19" y2="0"/>
      <line x1="-14.8" y1="-14.8" x2="-13.4" y2="-13.4"/>
    </g>
    <text x="0" y="-13" text-anchor="middle" font-family="JetBrains Mono, monospace" font-size="4" fill="#E8A838" opacity="0.7" stroke="none">0</text>
    <text x="14" y="2" text-anchor="middle" font-family="JetBrains Mono, monospace" font-size="4" fill="#E8A838" opacity="0.7" stroke="none">25</text>
    <text x="0" y="17" text-anchor="middle" font-family="JetBrains Mono, monospace" font-size="4" fill="#E8A838" opacity="0.7" stroke="none">50</text>
    <text x="-14" y="2" text-anchor="middle" font-family="JetBrains Mono, monospace" font-size="4" fill="#E8A838" opacity="0.7" stroke="none">75</text>
  </g>
  <g transform="translate(200, 258)">
    <circle r="34" stroke-width="2"/>
    <circle r="26" opacity="0.45"/>
    <circle r="7" fill="#E8A838" fill-opacity="0.35"/>
    <g stroke-width="2" stroke-linecap="round">
      <line x1="0" y1="-34" x2="0" y2="-7"/>
      <line x1="0" y1="34" x2="0" y2="7"/>
      <line x1="-34" y1="0" x2="-7" y2="0"/>
      <line x1="34" y1="0" x2="7" y2="0"/>
    </g>
    <g fill="#E8A838">
      <circle cx="0" cy="-34" r="2.8"/>
      <circle cx="0" cy="34" r="2.8"/>
      <circle cx="-34" cy="0" r="2.8"/>
      <circle cx="34" cy="0" r="2.8"/>
    </g>
  </g>
  <rect x="168" y="338" width="64" height="14" rx="1" stroke-width="0.6"/>
  <text x="200" y="348" text-anchor="middle" font-family="JetBrains Mono, monospace" font-size="5.5" fill="#E8A838" opacity="0.8" stroke="none">N&#xBA; 0417 · RECON&apos;D</text>
</svg>
